<?xml version="1.0" encoding="UTF-8"?>
<svg version="1.1" xmlns="http://www.w3.org/2000/svg" width="2000" height="2000">
<path d="M0 0 C0.81253235 0.0608075 1.6250647 0.12161499 2.46221924 0.18426514 C93.3478735 7.00676313 182.4845015 26.49806055 501 182 C501.70656738 182.51353027 502.41313477 183.02706055 503.14111328 183.55615234 C525.27044644 199.66345088 546.59717744 216.65330161 567.30712891 234.54541016 C569.0026829 236.00230527 570.70851026 237.44617479 572.41796875 238.88671875 C580.88950093 246.04312355 588.99823602 253.53119257 597.04589844 261.15917969 C598.86475375 262.87259411 600.69737887 264.56899997 602.5390625 266.2578125 C610.54460949 273.61155086 618.30514781 281.19859777 626 288.875 C626.49509064 289.36750244 626.99018127 289.86000488 627.50027466 290.36743164 C632.68202689 295.52775788 637.78227811 300.71704936 642.51367188 306.29931641 C644.10225488 308.11700188 645.77669951 309.81019834 647.5 311.5 C650.53594925 314.48872337 653.34508659 317.61706479 656.125 320.84375 C658.17359094 323.19962958 660.27203002 325.5050746 662.375 327.8125 C666.24594954 332.10122488 669.91371894 336.52108705 673.546875 341.01171875 C676.33452876 344.40750716 679.19222322 347.73661662 682.0625 351.0625 C686.83846883 356.61156533 691.48648309 362.23404122 696 368 C696.49193848 368.62326172 696.98387695 369.24652344 697.49072266 369.88867188 C705.73776881 380.33931318 713.68671043 390.96118451 721.41748047 401.79833984 C722.93985622 403.91632573 724.48278952 406.01720998 726.03515625 408.11328125 C752.02917552 443.3391309 774.44764811 481.40385466 795 520 C795.56654297 521.05928711 796.13308594 522.11857422 796.71679688 523.20996094 C819.41722828 565.81332216 838.35455366 610.34689498 854 656 C854.40251984 657.17308716 854.40251984 657.17308716 854.81317139 658.36987305 C881.83766897 737.34318317 898.96576868 819.64472387 904.85284424 902.94647217 C904.99963768 904.99494394 905.15503028 907.04261811 905.31201172 909.09033203 C908.74696585 954.68340786 908.52232591 1001.41836117 905 1047 C904.9391925 1047.81146484 904.87838501 1048.62292969 904.81573486 1049.45898438 C897.93244648 1141.11249772 878.61187497 1232.12436803 836 1344 C835.51192871 1345.19544434 835.02385742 1346.39088867 834.52099609 1347.62255859 C827.81847808 1363.96615977 820.52029021 1380.01877249 813 1396 C812.27925293 1397.54421631 812.27925293 1397.54421631 811.54394531 1399.11962891 C787.09762953 1451.44666164 756.93682616 1501.2931891 723 1548 C722.44650879 1548.763125 721.89301758 1549.52625 721.32275391 1550.3125 C710.16423558 1565.66199669 698.47189724 1580.50714777 686.46777344 1595.20019531 C685.18503868 1596.77310294 683.90840587 1598.35098284 682.6328125 1599.9296875 C673.86600995 1610.75171116 664.73895291 1621.26887958 655.22143555 1631.43701172 C652.62299074 1634.21652798 650.08315964 1637.03514015 647.5859375 1639.90625 C637.54406672 1651.42968589 626.79092302 1662.30783699 616 1673.125 C615.51176758 1673.61582062 615.02353516 1674.10664124 614.52050781 1674.61233521 C609.3955625 1679.75874231 604.24678228 1684.81068273 598.70507812 1689.50927734 C596.88613171 1691.09955323 595.1912417 1692.77522092 593.5 1694.5 C590.51127663 1697.53594925 587.38293521 1700.34508659 584.15625 1703.125 C581.80037042 1705.17359094 579.4949254 1707.27203002 577.1875 1709.375 C572.89391368 1713.25033743 568.46911998 1716.9222131 563.97265625 1720.55859375 C560.66247734 1723.27720323 557.42525024 1726.0710689 554.1875 1728.875 C547.91452942 1734.28612046 541.47375286 1739.43990698 534.921875 1744.5078125 C532.85736141 1746.11074785 530.80317524 1747.72632058 528.75 1749.34375 C518.36074513 1757.51023524 507.79201837 1765.37434919 497 1773 C496.10619629 1773.63196289 495.21239258 1774.26392578 494.29150391 1774.91503906 C481.05531313 1784.24991676 467.67908851 1793.32631256 454 1802 C453.17886719 1802.52126465 452.35773438 1803.0425293 451.51171875 1803.57958984 C429.86434229 1817.26911465 407.60555687 1829.96477178 385 1842 C383.93007812 1842.57186035 382.86015625 1843.1437207 381.7578125 1843.73291016 C363.14712922 1853.64246019 344.21191339 1862.63530749 324.92529297 1871.14837646 C323.10197211 1871.95489422 321.28137008 1872.76755037 319.4609375 1873.58056641 C233.41020394 1911.95150691 140.97111487 1935.86263005 2.08538818 1951.85284424 C-0.0116719 1952.00082363 -2.1081078 1952.15607704 -4.20458984 1952.31201172 C-49.79936084 1955.63537202 -96.4232957 1955.51120164 -142 1952 C-143.21879852 1951.90878876 -143.21879852 1951.90878876 -144.46221924 1951.81573486 C-234.93654264 1945.02411417 -324.52290157 1926.02734436 -434 1885 C-435.70349609 1884.31381592 -435.70349609 1884.31381592 -437.44140625 1883.61376953 C-449.49987041 1878.72534865 -461.41864758 1873.5486614 -473.2578125 1868.15234375 C-477.14955635 1866.37865877 -481.05963106 1864.65081573 -484.97729492 1862.93530273 C-494.14200671 1858.91165067 -503.09931088 1854.57493222 -512 1850 C-512.92200195 1849.52933105 -513.84400391 1849.05866211 -514.79394531 1848.57373047 C-529.42775195 1841.09627555 -543.82234004 1833.30868881 -558 1825 C-559.57418701 1824.08130127 -559.57418701 1824.08130127 -561.18017578 1823.14404297 C-583.31496793 1810.20979897 -604.96974452 1796.67195028 -626 1782 C-626.71462402 1781.50290527 -627.42924805 1781.00581055 -628.16552734 1780.49365234 C-649.50362131 1765.62995825 -670.06750131 1749.91605285 -690.20019531 1733.46777344 C-691.77310294 1732.18503868 -693.35098284 1730.90840587 -694.9296875 1729.6328125 C-706.06836688 1720.60949063 -716.82951653 1711.16187479 -727.3515625 1701.4296875 C-729.64093397 1699.32940865 -731.95961618 1697.27834812 -734.3125 1695.25 C-737.40509224 1692.57187889 -740.28270167 1689.74131207 -743.14599609 1686.8215332 C-744.84252776 1685.1547143 -746.58483861 1683.6220239 -748.40234375 1682.08984375 C-753.96305937 1677.25315966 -759.12834857 1672.02116643 -764.32739258 1666.80297852 C-766.058947 1665.066064 -767.79578359 1663.33456111 -769.53320312 1661.60351562 C-774.71965043 1656.41985439 -779.85159127 1651.24362868 -784.58178711 1645.63256836 C-786.14395254 1643.83428979 -787.799625 1642.1674709 -789.5 1640.5 C-792.53594925 1637.51127663 -795.34508659 1634.38293521 -798.125 1631.15625 C-800.17359094 1628.80037042 -802.27203002 1626.4949254 -804.375 1624.1875 C-808.24594954 1619.89877512 -811.91371894 1615.47891295 -815.546875 1610.98828125 C-818.3345264 1607.59249571 -821.19214355 1604.26331204 -824.0625 1600.9375 C-868.17281836 1549.70883159 -905.33749548 1491.58324936 -937 1432 C-937.60424805 1430.86530273 -938.20849609 1429.73060547 -938.83105469 1428.56152344 C-949.36337241 1408.72941105 -959.03268193 1388.58625615 -968 1368 C-968.46599609 1366.93135712 -968.46599609 1366.93135712 -968.94140625 1365.84112549 C-979.34500659 1341.9299064 -988.54843832 1317.66543382 -997 1293 C-997.27779297 1292.19195923 -997.55558594 1291.38391846 -997.84179688 1290.5513916 C-1024.57559108 1212.66740519 -1040.8631347 1131.22097183 -1046.84570312 1049.10028076 C-1046.99768905 1047.03145654 -1047.15661422 1044.9632537 -1047.31640625 1042.89501953 C-1050.76524264 997.34843352 -1050.66402585 950.52680801 -1047 905 C-1046.90171906 903.7561554 -1046.90171906 903.7561554 -1046.80145264 902.48718262 C-1040.45070253 822.53587479 -1025.08490635 744.1958714 -1000 668 C-999.7720575 667.30757202 -999.54411499 666.61514404 -999.30926514 665.9017334 C-986.89859647 628.30344602 -971.85568299 591.81969541 -955 556 C-954.51950195 554.97052246 -954.03900391 553.94104492 -953.54394531 552.88037109 C-934.16514218 511.40028571 -911.03108951 471.96528615 -885.6875 433.875 C-885.22913757 433.18548248 -884.77077515 432.49596497 -884.29852295 431.78555298 C-878.04428872 422.39128604 -871.61988034 413.14014657 -865 404 C-864.38278076 403.14712402 -863.76556152 402.29424805 -863.12963867 401.41552734 C-846.70592136 378.82364826 -829.28712424 357.10684549 -811 336 C-810.34515625 335.24332031 -809.6903125 334.48664063 -809.015625 333.70703125 C-805.15788068 329.2741645 -801.2316887 324.90393003 -797.29296875 320.54296875 C-795.85298213 318.94598189 -794.41740084 317.34500017 -792.98828125 315.73828125 C-781.70749818 303.082317 -769.97138519 290.87545711 -758 278.875 C-757.5115863 278.38399811 -757.02317261 277.89299622 -756.5199585 277.38711548 C-751.39519704 272.2408921 -746.24658401 267.18914917 -740.70507812 262.49072266 C-738.88612949 260.90044483 -737.19124651 259.22477898 -735.5 257.5 C-732.53264677 254.48586418 -729.42654708 251.70082667 -726.22265625 248.94140625 C-723.67023117 246.71195939 -721.18112486 244.41998618 -718.6875 242.125 C-714.20687499 238.03881791 -709.60394864 234.1603387 -704.88671875 230.3515625 C-701.69987633 227.75551495 -698.56680356 225.10227258 -695.4375 222.4375 C-690.03786932 217.85357321 -684.57082332 213.37546447 -679 209 C-678.37528809 208.50661133 -677.75057617 208.01322266 -677.10693359 207.50488281 C-666.65770568 199.2594655 -656.03708548 191.31205546 -645.20166016 183.58251953 C-643.08367427 182.06014378 -640.98279002 180.51721048 -638.88671875 178.96484375 C-603.66768669 152.97585535 -565.60733224 130.5159142 -527 110 C-525.86530273 109.39575195 -524.73060547 108.79150391 -523.56152344 108.16894531 C-451.09297426 69.68275062 -372.93579997 41.32265464 -144.13537598 0.15429688 C-142.7181739 0.05189343 -141.30109695 -0.05225745 -139.88415527 -0.15820312 C-93.59400905 -3.6133681 -46.28039431 -3.56541349 0 0 Z " fill="#0074DF" transform="translate(1071,24)"/>
<path d="M0 0 C1.52000107 0.00382187 1.52000107 0.00382187 3.07070923 0.00772095 C9.06581361 0.02533161 15.06065919 0.05836645 21.05560303 0.10540771 C23.29699574 0.12249889 25.5383596 0.13534173 27.77978516 0.14697266 C60.93769735 0.41588218 94.23587541 5.22145657 126.625 12.125 C127.77726074 12.36863281 128.92952148 12.61226562 130.11669922 12.86328125 C180.40102186 23.63283697 230.80881136 41.15575347 276.57421875 64.65234375 C277.66959961 65.21445557 278.76498047 65.77656738 279.89355469 66.35571289 C281.95092458 67.42323109 284.00036368 68.506228 286.04003906 69.60717773 C286.95366211 70.08485596 287.86728516 70.56253418 288.80859375 71.0546875 C289.99279907 71.69253174 289.99279907 71.69253174 291.20092773 72.34326172 C295.3659097 73.68642541 298.55441268 72.58407165 302.47973633 70.90087891 C303.95349731 70.13396729 303.95349731 70.13396729 305.45703125 69.3515625 C306.57158691 68.77978271 307.68614258 68.20800293 308.83447266 67.61889648 C309.4206134 67.31442596 310.00675415 67.00995544 310.61065674 66.69625854 C313.75284294 65.06868567 316.91302253 63.4769784 320.07421875 61.88671875 C320.71536621 61.56415604 321.35651367 61.24159332 322.01708984 60.90925598 C359.50294932 42.1362666 399.96886255 28.05071417 440.625 18.125 C442.406315 17.68125043 444.18756916 17.23725651 445.96875 16.79296875 C450.23802641 15.7394574 454.5171768 14.73737141 458.80566406 13.76513672 C460.76734401 13.31973277 462.72753518 12.86774179 464.68652344 12.41064453 C486.10471448 7.45434227 507.62833441 4.70262512 529.46392822 2.36065674 C531.33949228 2.15613354 533.21360478 1.93838206 535.08740234 1.71826172 C568.42956678 -2.19818945 603.2564133 -0.92836511 636.625 2.125 C638.58231728 2.28909682 640.53963735 2.45316423 642.49707031 2.61587524 C673.65447761 5.22881275 704.44536323 10.90583762 734.625 19.125 C735.56585449 19.37942871 736.50670898 19.63385742 737.47607422 19.89599609 C886.74683759 60.58117111 886.74683759 60.58117111 908.3828125 98.1796875 C911.4988653 104.2233806 913.74901515 109.08497577 913.75380117 115.93401235 C913.75707336 117.15608415 913.76034555 118.37815595 913.76371691 119.63726023 C913.7623067 121.00330316 913.76080468 122.36934601 913.75922108 123.73538876 C913.76117314 125.18486818 913.76356166 126.63434708 913.76634905 128.08382514 C913.77277039 132.09445813 913.77290897 136.10507115 913.77207164 140.11570831 C913.77224072 144.46869337 913.77814215 148.82167117 913.7833125 153.17465264 C913.79265472 161.82076413 913.79656327 170.4668705 913.79883147 179.11298641 C913.80178935 189.46434374 913.81048434 199.81569425 913.81924575 210.16704801 C913.84010865 235.19065255 913.85056301 260.21425829 913.85937535 285.2378695 C913.8635794 297.0720317 913.86880173 308.90619339 913.87405988 320.74035517 C913.89195205 361.2363563 913.90694866 401.73235758 913.91438007 442.22836208 C913.91485483 444.77164032 913.91533072 447.31491856 913.91580774 449.8581968 C913.9161623 451.75008835 913.9161623 451.75008835 913.91652403 453.68019992 C913.91772525 460.07057274 913.91894069 466.46094555 913.92016602 472.85131836 C913.92040617 474.11951688 913.92064632 475.3877154 913.92089374 476.69434418 C913.92878754 517.81696951 913.95222003 558.939566 913.98472196 600.06217873 C914.01900808 643.52143258 914.03873011 686.98066957 914.04202431 730.43993717 C914.04244186 735.20948574 914.04292143 739.97903429 914.04344749 744.74858284 C914.04357069 745.92301217 914.04369388 747.0974415 914.0438208 748.3074596 C914.04615442 767.22053531 914.06182346 786.13357757 914.08228934 805.04664135 C914.10253012 824.05305325 914.10803293 843.05942492 914.09851871 862.0658456 C914.09329685 873.36116529 914.09921354 884.65635118 914.12105338 895.95165165 C914.13453966 903.49600111 914.13350368 911.04025825 914.12065142 918.58460858 C914.11374033 922.88377766 914.1131345 927.18269055 914.13021151 931.48183697 C914.14563612 935.39690124 914.14247263 939.31150386 914.12480123 943.22655462 C914.1216645 944.63027634 914.1251571 946.03403357 914.13629298 947.43771463 C914.2388523 961.27217554 911.42291478 971.94055065 901.8125 982.02734375 C894.70238657 988.80775434 885.78057943 992.22016233 876 992.375 C875.03835938 992.40078125 874.07671875 992.4265625 873.0859375 992.453125 C863.67667834 991.56105077 856.05628864 987.45219191 847.9375 982.875 C845.63283507 981.60809162 843.32666075 980.34499343 841.015625 979.08984375 C840.41742447 978.76489426 839.81922394 978.43994476 839.20289612 978.10514832 C818.66676957 967.01543877 797.39490011 957.51378331 775.625 949.125 C774.50109863 948.68816895 773.37719727 948.25133789 772.21923828 947.80126953 C757.56369713 942.13118173 742.84411336 937.08185776 727.67919922 932.95605469 C725.61363505 932.39400989 723.55019025 931.8241269 721.48876953 931.24707031 C702.71786469 926.00002878 683.82341067 922.34596558 664.625 919.125 C663.67608887 918.96016113 662.72717773 918.79532227 661.74951172 918.62548828 C656.05723743 917.63847212 650.35928633 916.82629385 644.625 916.125 C643.5520166 915.98964844 642.4790332 915.85429688 641.37353516 915.71484375 C600.51425239 910.75611161 557.22212136 910.56087229 516.64501953 917.78564453 C513.50507568 918.31314295 510.34797393 918.68053898 507.1875 919.0625 C497.89978394 920.28508683 488.77637983 922.14472085 479.625 924.125 C478.51672852 924.36347656 477.40845703 924.60195312 476.26660156 924.84765625 C457.35258214 928.96457161 439.00967843 934.05490575 420.625 940.125 C419.71105469 940.42374023 418.79710937 940.72248047 417.85546875 941.03027344 C385.66643938 951.62397473 354.99223408 966.06357047 325.03125 981.77734375 C301.36357797 994.18003834 301.36357797 994.18003834 287.625 992.125 C279.49982282 989.32402343 272.03428829 985.31967693 264.5625 981.125 C199.85188731 945.55120954 127.23443505 921.329537 53.4387207 915.41870117 C50.78024291 915.14120453 48.24115782 914.66061256 45.625 914.125 C3.69512071 910.71846016 -38.96120772 912.99424005 -80.375 920.125 C-81.71643066 920.35074707 -81.71643066 920.35074707 -83.08496094 920.58105469 C-107.00434518 924.65914316 -130.49358359 930.76613245 -153.56982422 938.22119141 C-156.02237527 939.01138671 -158.47989616 939.78129601 -160.94140625 940.54296875 C-195.48323895 951.41495565 -229.81908376 966.92750165 -261.0625 985.125 C-271.85665976 991.33026694 -283.11204755 994.50986462 -295.515625 991.31640625 C-305.92728341 987.45875333 -314.53724105 980.18506546 -319.375 970.125 C-322.6540121 962.06355684 -322.80132078 954.24928739 -322.75811005 945.65327644 C-322.76185136 944.19563535 -322.7669034 942.73799713 -322.77313888 941.28036457 C-322.78645548 937.27965107 -322.78117345 933.27914725 -322.77280539 929.27842834 C-322.76699356 924.92408247 -322.77855039 920.56977658 -322.78786707 916.21544158 C-322.8017787 908.58539278 -322.80451327 900.95540326 -322.79990768 893.32534409 C-322.79307674 881.97911317 -322.8033317 870.63294231 -322.81686524 859.28671974 C-322.84178384 837.84408153 -322.84629386 816.40146822 -322.84439927 794.95881785 C-322.84302663 778.40213647 -322.84684177 761.84546372 -322.85432434 745.28878403 C-322.85537467 742.91076637 -322.85642229 740.53274872 -322.8574672 738.15473106 C-322.85824622 736.38409842 -322.85824622 736.38409842 -322.85904097 734.57769542 C-322.85956112 733.3951245 -322.86008126 732.21255358 -322.86061716 730.99414718 C-322.86140315 729.2173409 -322.86140315 729.2173409 -322.86220502 727.40463954 C-322.87678979 694.08533241 -322.88507012 660.76602847 -322.88045502 627.44671822 C-322.88028306 626.19044978 -322.88011111 624.93418134 -322.87993394 623.63984416 C-322.87904504 617.27246108 -322.87810023 610.90507801 -322.87713593 604.53769495 C-322.8769449 603.273094 -322.87675387 602.00849305 -322.87655704 600.70557086 C-322.87616995 598.14824066 -322.87577962 595.59091046 -322.87538607 593.03358026 C-322.86941518 553.235742 -322.88485768 513.43796187 -322.91699219 473.64013672 C-322.95305822 428.93520751 -322.97240337 384.23031516 -322.96745348 339.52537048 C-322.9669835 334.75986282 -322.96657324 329.99435517 -322.96620178 325.2288475 C-322.9660994 324.05544367 -322.96599701 322.88203985 -322.96589152 321.67307833 C-322.96469609 303.95024954 -322.97667169 286.22746055 -322.99534607 268.50464249 C-323.01657009 248.35225571 -323.02044612 228.1999525 -323.00104648 208.04756202 C-322.99071012 196.76773595 -322.99421629 185.48811361 -323.01757733 174.2083059 C-323.03179812 166.67452431 -323.02785768 159.14089363 -323.00913157 151.60712225 C-322.9989716 147.3140782 -322.99667557 143.021431 -323.01645225 138.72841157 C-323.03429963 134.81893773 -323.02892449 130.91019376 -323.00542386 127.00075609 C-323.00099248 125.5991117 -323.00483957 124.19740882 -323.01823221 122.79582141 C-323.11825718 111.562414 -321.1072649 101.17572406 -313.125 92.75 C-312.43921875 91.99976563 -311.7534375 91.24953125 -311.046875 90.4765625 C-302.7270025 83.15410162 -292.68301384 78.48453099 -282.875 73.5 C-282.1001123 73.10448944 -281.32522461 72.70897888 -280.52685547 72.30148315 C-275.15180889 69.55821158 -269.76721929 66.83435031 -264.375 64.125 C-263.75254395 63.81205994 -263.13008789 63.49911987 -262.48876953 63.17669678 C-238.18286355 50.98052199 -213.10329873 41.08219507 -187.421875 32.18261719 C-184.7976158 31.27169645 -182.17936507 30.34592725 -179.5625 29.4140625 C-167.50969668 25.18756064 -155.16706884 22.1093526 -142.78710938 19.00073242 C-139.21787064 18.08467208 -135.66693793 17.11134339 -132.11328125 16.13671875 C-123.89031559 13.93631845 -115.59991424 12.20558401 -107.25 10.5625 C-106.48332001 10.41059204 -105.71664001 10.25868408 -104.92672729 10.10217285 C-92.78854146 7.70387621 -80.66974037 5.55574025 -68.375 4.125 C-67.28638672 3.99641602 -66.19777344 3.86783203 -65.07617188 3.73535156 C-61.44778164 3.31240426 -57.81816966 2.90289536 -54.1875 2.5 C-53.08349854 2.37657227 -51.97949707 2.25314453 -50.84204102 2.12597656 C-33.90061498 0.32838532 -17.02483255 -0.05138474 0 0 Z " fill="#FDFEFE" transform="translate(704.375,503.875)"/>
<path d="M0 0 C1.03646667 0.18432587 2.07293335 0.36865173 3.14080811 0.55856323 C23.62188561 4.24740655 43.85510625 8.89462276 63.625 15.4375 C64.26416351 15.64682159 64.90332703 15.85614319 65.56185913 16.07180786 C94.41827594 25.52452066 122.42809738 36.75697235 149.75 50 C150.44869202 50.33847961 151.14738403 50.67695923 151.86724854 51.0256958 C158.33372506 54.16717781 164.7461309 57.36027337 171.05409241 60.81095886 C172.04015 61.35000949 173.0262076 61.88906012 174.04214573 62.44444561 C174.79136264 62.85465356 175.54057955 63.26486151 176.3125 63.6875 C182.55242668 110.70753623 186.69883331 157.78996936 188.99348265 205.16638196 C189.08099967 206.96880702 189.16967817 208.77117607 189.25953096 210.57348621 C193.77455565 301.15158364 190.53124545 377.8300669 127.48680091 447.63119578 C110.76453635 465.99298524 92.70177661 482.85583893 74.125 499.3125 C72.89285873 500.40710129 71.66074731 501.50173618 70.42866564 502.59640455 C42.90677275 527.01343103 14.62108386 550.41099363 -15.05563641 572.17280865 C-16.39124056 573.16188625 -16.39124056 573.16188625 -17.75382662 574.17094523 C-19.38574397 575.37729267 -21.02599649 576.57249491 -22.67661715 577.75312179 C-29.2263982 582.60567157 -33.89482295 588.58288222 -35.6875 596.6875 C-35.55553914 599.08703328 -35.36437274 601.48379229 -35.125 603.875 C-35.02180498 608.433528 -35.10988511 611.46790135 -38.05859375 614.96875 C-39.97716341 616.93732749 -41.973517 618.64124298 -44.0859375 620.41796875 C-47.48511142 623.38331417 -48.51634816 625.07155988 -48.98828125 629.52734375 C-48.99214844 630.54957031 -48.99601562 631.57179688 -49 632.625 C-49.01675781 633.64464844 -49.03351563 634.66429687 -49.05078125 635.71484375 C-48.52750697 639.99669024 -46.85452766 642.62988118 -43.6875 645.5 C-37.79538758 647.8322945 -31.9097532 647.56873834 -26.0625 645.25 C-23.88215162 643.83918634 -22.45005467 642.40880154 -20.75390625 640.41796875 C-15.1426115 633.88003817 -15.1426115 633.88003817 -10.3515625 633.24609375 C-7.93861072 633.33245753 -5.526675 633.45392419 -3.1171875 633.609375 C6.51504773 633.8287881 14.05076424 627.56431719 20.80087137 621.30800939 C25.02418157 617.27185782 29.13710163 613.12444685 33.25830078 608.98461914 C34.64684639 607.59714806 36.03582524 606.21011044 37.42520142 604.82347107 C41.17753479 601.07596155 44.923626 597.32226988 48.6684556 593.56726384 C52.59897892 589.62791845 56.53481236 585.69388484 60.46994019 581.75914001 C67.07533568 575.15280968 73.67685729 568.54262849 80.27587891 561.92993164 C87.89279992 554.29728384 95.51493619 546.6698765 103.14009106 539.04545504 C111.27693027 530.90929262 119.4099522 522.76932257 127.54186392 514.62823558 C129.87727174 512.29070205 132.21338427 509.95387481 134.54965591 507.61720467 C138.22759252 503.93825942 141.90295345 500.25675944 145.57638168 496.57331276 C146.9206883 495.22609936 148.26582587 493.87971449 149.61187744 492.53424454 C158.53221734 483.65449901 158.53221734 483.65449901 166.93894768 474.29300594 C169.25540345 471.58536718 171.70280914 469.11511941 174.3125 466.6875 C174.9725 466.6875 175.6325 466.6875 176.3125 466.6875 C176.3125 581.5275 176.3125 696.3675 176.3125 814.6875 C171.47329393 813.88096566 168.67514591 813.14050227 164.40234375 811.1328125 C163.2632959 810.6061499 162.12424805 810.0794873 160.95068359 809.53686523 C160.04851105 809.11568924 160.04851105 809.11568924 159.12811279 808.68600464 C143.81367702 801.5633064 128.21436417 795.3840571 112.3125 789.6875 C111.60554993 789.43401794 110.89859985 789.18053589 110.17022705 788.91937256 C93.44879079 782.93792645 76.78262652 776.99908167 59.41650391 773.16113281 C55.86523142 772.36170503 52.34079497 771.45696153 48.8125 770.5625 C47.01087559 770.1120939 45.2092042 769.66186135 43.40649414 769.21582031 C41.88181987 768.83114092 40.36057289 768.43280001 38.84155273 768.02636719 C29.44494169 765.56451542 19.93758699 763.85582176 10.375 762.1875 C9.49467102 762.03342682 8.61434204 761.87935364 7.70733643 761.72061157 C-8.04851613 758.98248344 -23.74031167 756.96616675 -39.6875 755.6875 C-40.84169434 755.58598633 -41.99588867 755.48447266 -43.18505859 755.37988281 C-89.40612402 751.34405366 -135.85953968 753.74136153 -181.6875 760.6875 C-183.33443848 760.92992432 -183.33443848 760.92992432 -185.01464844 761.17724609 C-216.70171289 765.94882233 -248.4452213 774.13037842 -278.6875 784.6875 C-279.75645508 785.05133789 -280.82541016 785.41517578 -281.92675781 785.79003906 C-297.47270815 791.08237266 -312.65233895 797.01160791 -327.73681641 803.48510742 C-328.69039536 803.89329208 -328.69039536 803.89329208 -329.66323853 804.3097229 C-331.38765554 805.04946276 -333.10992141 805.79421149 -334.83203125 806.53930664 C-337.6875 807.6875 -337.6875 807.6875 -341.6875 808.6875 C-341.6875 560.5275 -341.6875 312.3675 -341.6875 56.6875 C-314.08399684 42.15934044 -286.30817151 29.47057572 -256.6875 19.6875 C-255.72666504 19.3668457 -254.76583008 19.04619141 -253.77587891 18.71582031 C-220.9033454 7.78446072 -187.51535288 -0.02696459 -153.125 -4.1875 C-152.27512512 -4.29095734 -151.42525024 -4.39441467 -150.54962158 -4.50100708 C-100.45024715 -10.51412309 -49.60056135 -8.82632989 0 0 Z " fill="#0074DF" transform="translate(799.6875,587.3125)"/>
<path d="M0 0 C1.28427887 -0.00013092 2.56855774 -0.00026184 3.89175415 -0.00039673 C29.50129809 0.04656993 54.78860334 1.46665086 80.0625 5.6875 C80.99903412 5.83990143 81.93556824 5.99230286 82.90048218 6.14932251 C97.75118809 8.56854102 112.34246309 11.50849823 126.875 15.4375 C128.28460646 15.80161427 129.69472612 16.16375043 131.10546875 16.5234375 C134.70720634 17.45653014 138.29217247 18.43446878 141.875 19.4375 C143.74091797 19.95183594 143.74091797 19.95183594 145.64453125 20.4765625 C181.08213011 30.43671841 221.96252232 43.82918155 252.875 64.4375 C253.24901349 66.66511429 253.24901349 66.66511429 253.24759549 69.507743 C253.25433737 70.59016732 253.26107925 71.67259164 253.26802543 72.7878167 C253.26014439 73.98903045 253.25226335 75.19024419 253.24414349 76.42785835 C253.24760502 77.69982305 253.25106655 78.97178775 253.25463298 80.28229684 C253.263889 83.84039452 253.25427473 87.39823735 253.24179858 90.95631615 C253.2315376 94.81673981 253.23860038 98.67713638 253.24353105 102.53756511 C253.24976731 109.31247965 253.24479545 116.08731536 253.23261642 122.86222076 C253.21455664 132.93633811 253.21360478 143.01040546 253.21624239 153.08453605 C253.22018993 170.02847047 253.21013779 186.97236987 253.19219017 203.9162941 C253.17445746 220.70023903 253.16289605 237.48416939 253.15963173 254.26812363 C253.15942551 255.31051893 253.15921929 256.35291422 253.15900682 257.42689726 C253.15799187 262.7203931 253.1570877 268.01388896 253.1562262 273.30738483 C253.14991989 310.83074696 253.12969367 348.35409002 253.10131836 385.87744141 C253.0737787 422.33772683 253.05252119 458.79800704 253.03979492 495.25830078 C253.03940034 496.38156777 253.03900576 497.50483477 253.03859923 498.66214016 C253.03464377 509.94213762 253.03081632 521.22213512 253.02708265 532.50213266 C253.01947339 555.48212477 253.01100964 578.46211654 253.00202942 601.44210815 C253.00161755 602.49876124 253.00120568 603.55541433 253.00078133 604.64408722 C252.97316523 675.24189941 252.92562799 745.83970102 252.875 816.4375 C251.43879206 815.96443357 250.00306894 815.48989507 248.56755066 815.01473999 C247.76798038 814.75064016 246.96841009 814.48654034 246.1446104 814.21443748 C243.36428501 813.26267104 240.68110017 812.15228384 237.98828125 810.9765625 C211.98679964 799.819268 185.23897677 790.27528669 157.88574219 782.984375 C154.90610046 782.17398191 151.95655071 781.26544351 149 780.375 C132.27590481 775.65745176 115.1675114 772.69882074 98.0625 769.75 C96.76607071 769.5244191 96.76607071 769.5244191 95.44345093 769.29428101 C79.91529177 766.60390696 64.41130206 764.4946145 48.65429688 763.78320312 C45.7264998 763.63809365 42.88822351 763.43981072 39.99829102 762.93481445 C34.0868131 762.07277974 28.09316043 762.25478145 22.1328125 762.234375 C20.77476464 762.22745442 19.41671716 762.22045922 18.05867004 762.21339417 C13.70577717 762.19407453 9.35293064 762.18947199 5 762.1875 C4.26242085 762.18676357 3.52484169 762.18602715 2.76491165 762.1852684 C-17.90983271 762.16839215 -38.38287082 762.36111398 -58.92431641 765.02294922 C-62.075214 765.43105174 -65.22805341 765.78668845 -68.38671875 766.12890625 C-103.87998483 770.08820028 -139.08220705 777.64932711 -173.125 788.4375 C-174.97762451 789.02289551 -174.97762451 789.02289551 -176.86767578 789.62011719 C-208.84135572 799.78021521 -240.36820371 811.76087417 -270.05078125 827.51171875 C-272.125 828.4375 -272.125 828.4375 -275.125 828.4375 C-275.30804071 778.36345923 -275.44904157 728.28945222 -275.53352264 678.21514281 C-275.5435285 672.30578151 -275.55388306 666.39642087 -275.56445312 660.48706055 C-275.56655161 659.3105945 -275.56865009 658.13412845 -275.57081217 656.92201192 C-275.60563939 637.86331852 -275.66872514 618.80481783 -275.74222237 599.74623882 C-275.8169883 580.1958725 -275.86146045 560.64560722 -275.87770796 541.0951038 C-275.88869462 529.02760231 -275.92341597 516.96064544 -275.98833174 504.89331157 C-276.03056246 496.6225176 -276.04341379 488.3520059 -276.03301102 480.0811119 C-276.02787787 475.30631766 -276.03584187 470.53247621 -276.0786438 465.75785065 C-276.11754144 461.38689513 -276.11956673 457.017534 -276.09219116 452.64650548 C-276.08880739 451.06493269 -276.09898911 449.4832609 -276.12406546 447.9018833 C-276.2992166 436.17504282 -276.2992166 436.17504282 -273.69777548 432.32556963 C-271.80819893 430.68457699 -271.80819893 430.68457699 -269.60186458 429.16083175 C-266.63140948 427.09407379 -264.17390765 424.65387481 -261.64395714 422.0878849 C-260.61514022 421.06213693 -259.58590333 420.03681004 -258.55629194 419.01185954 C-257.44807398 417.9028616 -256.33990542 416.79381431 -255.23178101 415.6847229 C-254.03729193 414.49282144 -252.84258975 413.30113352 -251.64769423 412.10963953 C-248.38005007 408.85002132 -245.11550883 405.58731121 -241.85150528 402.32404804 C-238.32496778 398.79936868 -234.79558672 395.27753849 -231.26661682 391.7552948 C-223.55961512 384.06184308 -215.85636365 376.36464375 -208.15393019 368.66661882 C-203.34282495 363.85828025 -198.53098454 359.05067783 -193.71901321 354.24320602 C-180.38958189 340.92596034 -167.06109256 327.60777345 -153.73605919 314.28612709 C-152.88420988 313.43449734 -152.03236056 312.5828676 -151.15469763 311.70543089 C-150.30085522 310.85180675 -149.44701281 309.99818262 -148.56729639 309.11869109 C-146.83718351 307.38902168 -145.10706909 305.65935382 -143.37695312 303.9296875 C-142.08966843 302.64273495 -142.08966843 302.64273495 -140.77637799 301.32978337 C-126.86074194 287.41809804 -112.93836155 273.5131832 -99.01306979 259.61116369 C-84.70797682 245.32978462 -70.40851642 231.0427861 -56.11469233 216.75012815 C-48.09229266 208.72864493 -40.06749561 200.70959321 -32.03647995 192.69673538 C-25.20093447 185.87659099 -18.37055185 179.05132843 -11.54683302 172.21935035 C-8.06635454 168.73496618 -4.58350557 165.25304248 -1.0940609 161.77763557 C2.10255891 158.59375818 5.29212662 155.40298627 8.47631066 152.20667331 C9.62698456 151.0540431 10.78017952 149.90392277 11.93618675 148.75664158 C24.9577497 136.23124105 24.9577497 136.23124105 29.96484375 119.52734375 C29.90351894 117.44032187 29.81160743 115.35686233 29.70898438 113.27148438 C29.58087153 108.61966289 30.38558279 106.2836176 32.875 102.4375 C33.58362002 97.60221042 33.49156598 92.99514036 31.6875 88.4375 C28.80263814 85.25420415 26.17112712 83.59404522 21.8671875 83.07421875 C20.83851563 83.09097656 19.80984375 83.10773438 18.75 83.125 C17.71617187 83.12886719 16.68234375 83.13273438 15.6171875 83.13671875 C12.66021111 83.24798468 12.66021111 83.24798468 9.875 85.4375 C6.29965979 85.62818481 2.76060251 85.70811978 -0.81835938 85.65234375 C-13.62867207 85.93484428 -22.66971203 94.10004521 -31.20414734 102.80184937 C-32.260212 103.85600946 -33.31759964 104.90884553 -34.37617713 105.96048224 C-37.25670383 108.82962076 -40.11834274 111.71695412 -42.9770478 114.60781312 C-46.07227049 117.73115661 -49.18499071 120.83697907 -52.295578 123.94500732 C-57.67449775 129.32419077 -63.04241981 134.71414748 -68.40295982 140.11164474 C-76.15386563 147.9158678 -83.92188479 155.70287371 -91.69420502 163.48576327 C-104.30633197 176.11587409 -116.90537856 188.75894817 -129.49584961 201.41064453 C-141.72087532 213.69504877 -153.95081058 225.97452571 -166.18823242 238.24658203 C-166.94321121 239.00370257 -167.69819001 239.7608231 -168.47604694 240.54088669 C-175.97904942 248.06497233 -183.482863 255.58824885 -190.98699864 263.11120432 C-193.90157105 266.03308674 -196.81610705 268.95500546 -199.73062464 271.87694256 C-201.16825913 273.31822817 -202.60590905 274.75949837 -204.04357467 276.20075293 C-213.20304981 285.38327947 -222.35806787 294.57021926 -231.50827348 303.76198268 C-236.11521772 308.38977858 -240.72376265 313.01597897 -245.33278396 317.64170615 C-248.98526313 321.30769238 -252.63561624 324.97577802 -256.28435592 328.64548596 C-258.48944523 330.86222257 -260.6965739 333.07691939 -262.90432725 335.29100247 C-263.92101989 336.31146524 -264.93683948 337.33279868 -265.95173665 338.35504715 C-267.32175989 339.73478616 -268.69510554 341.11122386 -270.06865978 342.48744774 C-270.8333669 343.25578701 -271.59807402 344.02412629 -272.38595408 344.81574857 C-274.125 346.4375 -274.125 346.4375 -275.125 346.4375 C-275.125 257.3375 -275.125 168.2375 -275.125 76.4375 C-269.845 73.7975 -264.565 71.1575 -259.125 68.4375 C-255.34828832 66.46823241 -251.57765812 64.49083205 -247.8125 62.5 C-211.31739241 43.38208343 -172.95847115 28.0490077 -133.125 17.4375 C-132.03590332 17.14536621 -130.94680664 16.85323242 -129.82470703 16.55224609 C-112.74549585 12.01440835 -95.61063752 8.04161481 -78.125 5.4375 C-77.3742218 5.32472717 -76.6234436 5.21195435 -75.84991455 5.09576416 C-50.59697623 1.35423077 -25.50001497 -0.02943035 0 0 Z " fill="#0074DF" transform="translate(1289.125,579.5625)"/>
<path d="M0 0 C0.65961528 -0.00350607 1.31923057 -0.00701215 1.99883419 -0.01062447 C4.20670555 -0.01992029 6.41431209 -0.01501995 8.62219429 -0.01015663 C10.2220958 -0.0138938 11.82199549 -0.01849559 13.42189229 -0.02388728 C17.81672287 -0.03612425 22.21147736 -0.03585599 26.6063211 -0.03349853 C31.34671118 -0.03309054 36.08707682 -0.0441277 40.82745552 -0.05361366 C50.11380965 -0.07022802 59.40013839 -0.07572339 68.68650614 -0.07683842 C76.23397232 -0.0777886 83.78143013 -0.08189741 91.32889366 -0.08823967 C112.72388474 -0.10585258 134.11885575 -0.11507836 155.51385413 -0.11357872 C157.24404425 -0.11345885 157.24404425 -0.11345885 159.0091877 -0.11333656 C160.16405474 -0.1132548 161.31892178 -0.11317304 162.50878479 -0.1130888 C181.23009399 -0.11227569 199.95132278 -0.13141958 218.67260872 -0.1596133 C237.89209395 -0.18832911 257.11153994 -0.20215434 276.33104718 -0.20042574 C287.12275025 -0.19976144 297.91436901 -0.20527176 308.70605278 -0.22678185 C317.89322827 -0.2449764 327.0802812 -0.2493551 336.26746689 -0.235763 C340.95505229 -0.22922489 345.64240245 -0.22914658 350.32996559 -0.2464695 C354.62203664 -0.26216782 358.91368529 -0.25936988 363.20574583 -0.24190123 C364.75751738 -0.2388242 366.3093202 -0.2424902 367.86105488 -0.25362138 C376.92904656 -0.31435592 384.20161515 -0.26048587 391.28311348 6.10883141 C391.73815254 6.69406578 392.1931916 7.27930016 392.66201973 7.88226891 C393.13510567 8.47265953 393.6081916 9.06305016 394.09561348 9.67133141 C397.39392836 14.30495023 396.60504902 19.78626293 396.22451973 25.25726891 C394.53251666 30.6318669 390.90755649 34.23830152 386.22451973 37.25726891 C381.82252066 38.99274443 378.15179706 39.50888074 373.43342209 39.51453781 C372.77211843 39.51804389 372.11081477 39.52154996 371.42947161 39.52516228 C369.21585708 39.53445841 367.00250665 39.52955768 364.7888813 39.52469444 C363.18485499 39.5284316 361.58083051 39.53303338 359.97680891 39.53842509 C355.57057681 39.55066226 351.16442059 39.55039378 346.75817537 39.54803634 C342.00551526 39.54762836 337.25287955 39.55866546 332.50023079 39.56815147 C323.1898132 39.58476594 313.87942094 39.59026121 304.56898977 39.59137623 C297.00197744 39.59232641 289.43497347 39.59643519 281.86796379 39.60277748 C260.41763519 39.62039042 238.96732662 39.62961617 217.51699074 39.62811653 C216.36054366 39.62803662 215.20409659 39.62795671 214.01260567 39.62787437 C212.85474801 39.62779261 211.69689036 39.62771085 210.50394611 39.62762661 C191.73413805 39.6268135 172.96441019 39.64595741 154.19462533 39.67415111 C134.92541957 39.70286681 115.65625295 39.71669215 96.38702524 39.71496356 C85.56737657 39.71429924 74.74781201 39.71980973 63.9281826 39.74131966 C54.71721864 39.75951407 45.50637691 39.76389303 36.29540278 39.75030081 C31.595666 39.74376263 26.89616386 39.74368466 22.19644928 39.76100731 C17.89327607 39.77670531 13.59052416 39.77390802 9.28736143 39.75643905 C7.73155222 39.75336194 6.17571183 39.75702827 4.6199394 39.7681592 C-4.48149192 39.82895818 -11.78862965 39.78823206 -18.86923027 33.35492516 C-23.32649276 26.90427582 -23.9569486 20.96736828 -22.77548027 13.25726891 C-20.17900098 7.66485197 -15.75590888 3.46643759 -10.00363529 1.13272321 C-6.52535357 0.1894362 -3.60109338 0.0043287 0 0 Z " fill="#FAFCFE" transform="translate(524.7754802703857,888.7427310943604)"/>
<path d="M0 0 C0.99516266 -0.00352835 0.99516266 -0.00352835 2.01042962 -0.00712797 C4.2553359 -0.01383679 6.50018454 -0.01335918 8.74510002 -0.01294994 C10.36217204 -0.01624741 11.97924323 -0.01997273 13.59631336 -0.02409142 C18.0571695 -0.03413308 22.51801218 -0.0378317 26.97887802 -0.04048073 C31.78340924 -0.04437744 36.58792975 -0.05395627 41.39245415 -0.0626936 C53.00466175 -0.08247701 64.61687026 -0.09252705 76.22909051 -0.10142139 C81.69419398 -0.10580162 87.15929648 -0.11116915 92.62439919 -0.11641026 C110.78656437 -0.13342517 128.94872894 -0.14791968 147.11090088 -0.155159 C151.8265222 -0.15706897 156.54214351 -0.15898929 161.25776482 -0.16094494 C162.42984694 -0.16142868 163.60192905 -0.16191242 164.80952881 -0.16241082 C183.79944876 -0.17071232 202.78930574 -0.19605011 221.77919818 -0.22852562 C241.26523524 -0.26157851 260.75124028 -0.2796062 280.23730552 -0.28280324 C291.18221557 -0.28497008 302.12703382 -0.29374413 313.07191658 -0.31926441 C322.39276413 -0.34094732 331.7134976 -0.34903374 341.03436752 -0.33929763 C345.79078755 -0.33474581 350.54697209 -0.33669032 355.30335999 -0.35605907 C359.65849542 -0.37364078 364.0132227 -0.37273374 368.36836217 -0.35716178 C369.94313642 -0.35477809 371.51793857 -0.35914866 373.0926701 -0.37099043 C382.32310127 -0.43609731 389.31671635 -0.23450924 396.73237419 5.85297108 C400.65799319 10.82542181 401.43776397 14.92680936 401.09565544 21.22797108 C400.21934529 26.80040483 398.23049686 30.5423484 394.26362419 34.50922108 C389.23838725 37.62008204 384.68479296 38.38449079 378.83190918 38.39148998 C378.16891715 38.39499606 377.50592512 38.39850213 376.82284242 38.40211445 C374.6034847 38.41141089 372.3843904 38.40650977 370.1650219 38.40164661 C368.55687079 38.40538375 366.94872151 38.40998553 365.3405751 38.41537726 C360.92294148 38.42761462 356.50538355 38.42734593 352.08773685 38.42498851 C347.32280671 38.42458053 342.55790091 38.43561759 337.7929821 38.44510365 C328.45850106 38.46171821 319.12404527 38.46721338 309.78955068 38.4683284 C302.20299221 38.46927857 294.61644208 38.47338733 287.02988625 38.47972965 C265.52422013 38.49734262 244.01857398 38.50656833 222.51290061 38.5050687 C221.35346654 38.50498879 220.19403247 38.50490888 218.99946404 38.50482655 C217.25819163 38.5047039 217.25819163 38.5047039 215.48174201 38.50457878 C196.66343509 38.50376567 177.84520816 38.52290959 159.02692439 38.55110328 C139.70799809 38.57981887 120.38911084 38.59364433 101.07016265 38.59191573 C90.2225684 38.59125141 79.37505803 38.59676207 68.52748299 38.61827183 C59.29273055 38.63646609 50.05810003 38.64084532 40.82333745 38.62725298 C36.1114493 38.62071473 31.39979517 38.62063709 26.68792915 38.63795948 C22.37365377 38.65365716 18.05979862 38.65086052 13.74553369 38.63339122 C12.18568683 38.63031404 10.62580887 38.63398071 9.06599869 38.64511137 C1.05858295 38.69846254 -5.51817272 38.72886098 -12.36137581 34.13422108 C-18.04368057 28.15284765 -18.8187308 23.36080622 -18.67387581 15.26703358 C-18.11359027 9.65017101 -15.2958678 6.8538771 -11.23637581 3.32172108 C-7.07937968 0.15878924 -5.19155023 0.00781114 0 0 Z " fill="#FEFEFE" transform="translate(520.3613758087158,688.8657789230347)"/>
<path d="M0 0 C1.6172673 -0.00461062 3.23453041 -0.01096463 4.85178477 -0.01890898 C9.29005562 -0.03560351 13.72798233 -0.02735538 18.1662544 -0.0149641 C22.95503721 -0.00591637 27.7437607 -0.01988202 32.53253174 -0.03088379 C41.91169758 -0.04867695 51.29073544 -0.04482535 60.66990631 -0.03323323 C68.29267978 -0.02420178 75.91541737 -0.02297366 83.53819466 -0.02732849 C84.62287805 -0.02794142 85.70756144 -0.02855436 86.82511403 -0.02918586 C89.02860145 -0.03046476 91.23208887 -0.03176161 93.43557627 -0.03307623 C114.10155857 -0.0444845 134.76746991 -0.03136471 155.43344057 -0.00987476 C173.16591345 0.00799391 190.89828158 0.00489448 208.63075256 -0.0135498 C229.22094639 -0.03495648 249.81107801 -0.04338318 270.40128142 -0.03110075 C272.59699443 -0.02982655 274.79270745 -0.02856907 276.98842049 -0.02732849 C278.0687611 -0.02671139 279.14910171 -0.02609429 280.26217992 -0.02545848 C287.87531183 -0.02200479 295.48840428 -0.02783441 303.10153008 -0.0372467 C312.38018866 -0.04846591 321.65871189 -0.04542834 330.93735497 -0.02412373 C335.6715184 -0.01361192 340.40545617 -0.00949373 345.13961792 -0.02272034 C349.4742225 -0.03464745 353.80839243 -0.02807646 358.14295764 -0.00681013 C359.71017076 -0.00234539 361.27742066 -0.00460751 362.84461009 -0.01431328 C371.94790612 -0.06636206 379.43093364 -0.10799326 386.42396545 6.48059082 C390.4323442 12.43748702 391.55903822 17.38706417 390.33021545 24.50793457 C388.64060681 29.85389209 386.12463616 33.46757022 381.33021545 36.50793457 C377.31272127 38.45397917 374.07401936 38.75915013 369.62813759 38.76241016 C368.96431143 38.76561664 368.30048527 38.76882312 367.61654317 38.77212676 C365.38833254 38.78043947 363.1603898 38.77449812 360.93217468 38.76863098 C359.32004951 38.77165109 357.70792577 38.77553986 356.09580457 38.78022355 C351.66257564 38.79053047 347.22942733 38.78831488 342.79619169 38.78404295 C338.01626933 38.78158061 333.23636663 38.79058379 328.45645142 38.79808044 C319.09074944 38.81084326 309.72507611 38.81261916 300.35936691 38.81028018 C292.74798609 38.80849859 285.13661399 38.81024324 277.52523422 38.81450462 C276.44276649 38.81509981 275.36029875 38.815695 274.24502897 38.81630823 C272.04612975 38.81751995 269.84723054 38.81873409 267.64833133 38.8199506 C247.01722375 38.83083229 226.38613251 38.8286607 205.755024 38.82256576 C186.87455972 38.8173963 167.99414703 38.82865168 149.11369295 38.84766398 C129.73491331 38.86702873 110.3561581 38.87530075 90.97736871 38.87154073 C80.094597 38.86962657 69.21186921 38.87213702 58.32910538 38.88625526 C49.06430383 38.89815269 39.79957323 38.8995924 30.53477074 38.8874651 C25.80685056 38.88156483 21.07906024 38.88050864 16.35114861 38.8924675 C12.02337603 38.90328711 7.69584235 38.90026984 3.36808114 38.88620581 C1.80216768 38.88354804 0.23623574 38.8859592 -1.32965963 38.89394168 C-3.45873608 38.90404204 -5.58698117 38.89563158 -7.7160244 38.88266468 C-8.89842119 38.8827197 -10.08081797 38.88277471 -11.29904497 38.88283139 C-16.01822088 38.35796021 -19.99736855 36.9737972 -23.63072205 33.78918457 C-24.09736267 33.20137207 -24.5640033 32.61355957 -25.04478455 32.00793457 C-25.52689392 31.42012207 -26.0090033 30.83230957 -26.50572205 30.22668457 C-29.95585526 25.13252814 -29.38932109 18.36108759 -28.66978455 12.50793457 C-26.47205985 7.50026187 -22.89355394 4.03088352 -18.11681259 1.37306309 C-12.40491348 -0.64633625 -5.99762431 -0.03708651 0 0 Z " fill="#FEFEFE" transform="translate(530.6697845458984,788.4920654296875)"/>
<path d="M0 0 C4.19876009 1.28188836 7.0580506 3.64418218 9.4375 7.3125 C11.25147904 11.00327986 11.57853612 13.87793012 11 18 C8.00985157 25.45657076 3.29814304 30.26356255 -2.3621521 35.86335754 C-3.33150481 36.83660756 -4.29998281 37.81072944 -5.26766455 38.7856409 C-7.91748655 41.45017327 -10.57957028 44.10214628 -13.24391079 46.75215042 C-16.11963406 49.6167429 -18.98378618 52.4928655 -21.84944153 55.36752319 C-27.46000366 60.99200462 -33.08123567 66.60570363 -38.7062857 72.21569178 C-45.25736465 78.74989698 -51.79837997 85.29413787 -58.33915468 91.83865484 C-70.00935191 103.51472807 -81.68954004 115.18075644 -93.375 126.84155273 C-104.71330904 138.15593353 -116.04315415 149.47870619 -127.36425781 160.81030273 C-139.69542549 173.152879 -152.03131478 185.49070033 -164.37540591 197.82035273 C-165.69151303 199.13493402 -167.00761741 200.44951805 -168.32371902 201.76410484 C-168.97126071 202.41088872 -169.6188024 203.05767259 -170.28596657 203.72405598 C-174.84885813 208.28220491 -179.40844541 212.84364323 -183.96683884 217.40629005 C-189.52094301 222.96532012 -195.0804663 228.51886292 -200.64694546 234.06550238 C-203.486858 236.89554201 -206.32433423 239.72791417 -209.15537834 242.56682777 C-211.74710369 245.16560983 -214.34565492 247.75735657 -216.94982274 250.34366854 C-218.33602735 251.72391315 -219.71489151 253.11151781 -221.09347856 254.49937087 C-231.09434456 264.39830593 -231.09434456 264.39830593 -238.9375 264.5 C-243.36975811 264.34647299 -246.19529477 263.40029496 -249.59375 260.546875 C-252.92825579 256.87891864 -254.14165617 252.78194274 -254.4375 247.9375 C-253.49346668 239.44120009 -246.36681831 234.08667329 -240.57969666 228.3324585 C-239.60450451 227.35567691 -238.62975038 226.37845784 -237.65539557 225.400841 C-234.98393369 222.72297966 -232.30628844 220.05137764 -229.62756908 217.38077879 C-226.73710225 214.49689991 -223.85241445 211.60725034 -220.96699524 208.71832275 C-215.31711383 203.06340353 -209.66191223 197.41383379 -204.00488561 191.76606342 C-197.41930367 185.19086992 -190.83895647 178.61044799 -184.25881023 172.02981547 C-172.52097099 160.29147576 -160.77830929 148.55797216 -149.03295898 136.82714844 C-137.63056509 125.4388497 -126.23168714 114.04704701 -114.83666992 102.65136719 C-114.13448607 101.94914338 -113.43230222 101.24691957 -112.70884006 100.52341625 C-112.00788031 99.82241614 -111.30692056 99.12141603 -110.5847196 98.3991735 C-97.61649165 85.43025615 -84.64497854 72.46462905 -71.67192842 59.50053553 C-67.08092043 54.91254646 -62.49089189 50.32357886 -57.90116692 45.73430634 C-52.31161757 40.14543833 -46.72018632 34.55846083 -41.12638061 28.97385284 C-38.27113469 26.12323104 -35.4166878 23.27182124 -32.56438065 20.41825867 C-29.95558602 17.80837146 -27.34450685 15.20079319 -24.73154838 12.59507492 C-23.33452026 11.20072841 -21.93994734 9.80392332 -20.54545063 8.40704513 C-19.71986292 7.58468187 -18.89427522 6.76231861 -18.0436697 5.91503525 C-17.33006517 5.20213514 -16.61646064 4.48923503 -15.88123173 3.75473189 C-10.91287171 -0.87954025 -6.49730729 -0.7178843 0 0 Z " fill="#FDFEFE" transform="translate(1322,743)"/>
<path d="M0 0 C0.83475255 -0.00297112 1.6695051 -0.00594224 2.52955317 -0.0090034 C5.33691188 -0.01770029 8.144228 -0.01919949 10.95159912 -0.02069092 C12.96036368 -0.02531841 14.96912736 -0.03034298 16.97789001 -0.03573608 C22.44288378 -0.04886923 27.90786526 -0.0553069 33.37287235 -0.05974674 C36.78629027 -0.06267617 40.19970481 -0.06678074 43.61312103 -0.07125092 C54.29024276 -0.08492864 64.96735679 -0.09459379 75.64448667 -0.09845281 C87.97444545 -0.1029335 100.30429338 -0.12048085 112.63421845 -0.1494534 C122.16127572 -0.17106356 131.68830178 -0.18115674 141.21538329 -0.18249393 C146.90702177 -0.18354249 152.59855607 -0.18946115 158.29016876 -0.20731354 C163.64502729 -0.2237825 168.99970321 -0.22595537 174.35457802 -0.21717453 C176.31896516 -0.21640351 178.28336207 -0.22075538 180.24772453 -0.23063278 C182.9318874 -0.24333691 185.61540206 -0.23748379 188.29956055 -0.22705078 C189.0747687 -0.23510719 189.84997685 -0.24316359 190.64867616 -0.25146413 C196.65273959 -0.19697948 201.46484559 0.97252903 206.08343506 5.07794189 C206.64288818 5.75856689 207.20234131 6.43919189 207.77874756 7.14044189 C208.35366943 7.82106689 208.92859131 8.50169189 209.52093506 9.20294189 C212.55530251 13.45448499 212.48068982 18.12673236 211.90374756 23.14044189 C210.05856131 29.0555818 206.93232711 32.65122343 201.90374756 36.14044189 C197.53355203 38.38651566 193.3839578 38.42953585 188.57371521 38.41459656 C187.73795938 38.41983324 186.90220355 38.42506992 186.04112178 38.43046528 C183.24227081 38.44546002 180.44360273 38.44617032 177.64471436 38.44683838 C175.6372751 38.4544602 173.62983877 38.46288774 171.62240601 38.47206116 C166.16985386 38.49401047 160.71735779 38.50280563 155.26476645 38.5078876 C151.85769024 38.51153059 148.45062873 38.51777036 145.04355812 38.52488899 C133.15588358 38.54938479 121.26825269 38.56243572 109.3805542 38.565979 C98.30205837 38.56961458 87.22383953 38.59951135 76.14542836 38.64138359 C66.6318958 38.6760798 57.11845506 38.69152733 47.60485965 38.69222504 C41.92376588 38.69301806 36.24295426 38.70176872 30.56192589 38.7302227 C25.21760276 38.75639169 19.87379596 38.75861481 14.52943802 38.74256706 C12.57030041 38.74075167 10.6111332 38.74745138 8.65205956 38.76338577 C5.97234056 38.78384921 3.2944277 38.77329357 0.61473083 38.75517273 C-0.15620024 38.7683727 -0.92713131 38.78157266 -1.72142392 38.79517263 C-7.59386982 38.70478746 -11.50876285 36.76420586 -16.09625244 33.14044189 C-21.31892271 27.51602776 -21.44787483 22.74452769 -21.37359619 15.30841064 C-20.88175009 9.69028122 -18.05552931 6.8883678 -14.03375244 3.32794189 C-9.40761306 -0.11705551 -5.54492826 -0.00612727 0 0 Z " fill="#FEFEFE" transform="translate(523.0962524414063,989.8595581054688)"/>
</svg>
